<?xml version="1.0" encoding="utf-8"?>
<!-- Generator: Adobe Illustrator 25.1.0, SVG Export Plug-In . SVG Version: 6.00 Build 0)  -->
<svg version="1.1" xmlns="http://www.w3.org/2000/svg" xmlns:xlink="http://www.w3.org/1999/xlink" x="0px" y="0px"
	 viewBox="0 0 300 300" style="enable-background:new 0 0 300 300;" xml:space="preserve">
<style type="text/css">
	.st0{fill-rule:evenodd;clip-rule:evenodd;fill:#13AFF0;}
	.st1{fill:none;stroke:#000000;stroke-miterlimit:10;}
</style>
<g id="Layer_1">
	<path class="st0" d="M288.61,228.41c0-6.61-1.64-12.77-4.45-17.93l-90.64-187c-4.85-10.83-14.32-17.6-24.63-17.58h-47.9l140,287.9
		l22.07-45.37C287.42,239.73,288.61,235.89,288.61,228.41z M12.72,228.06l23.3,47.81h0.01c4.75,11.17,14.37,18.2,24.89,18.19H215.6
		l-32.1-66L12.72,228.06L12.72,228.06z M98.1,52.54l62.57,128.63H35.52C35.52,181.17,98.1,52.54,98.1,52.54z"/>
</g>
<g id="Layer_2">
	<line class="st1" x1="120.99" y1="5.89" x2="168.9" y2="5.89"/>
	<path class="st1" d="M288.61,220.69"/>
	<line class="st1" x1="260.99" y1="293.79" x2="120.99" y2="5.89"/>
	<path class="st1" d="M168.9,5.89c9.8,0.55,19.16,5.86,23.73,15.72"/>
	<path class="st1" d="M286.53,215.88c2.38,6.59,2.38,10.8,2.38,10.8s0,7.15-2.87,15.34"/>
	<line class="st1" x1="260.99" y1="293.79" x2="286.04" y2="242.02"/>
	<line class="st1" x1="192.62" y1="21.62" x2="286.53" y2="215.88"/>
	<line class="st1" x1="160.67" y1="181.17" x2="35.52" y2="181.17"/>
	<line class="st1" x1="98.1" y1="52.54" x2="35.52" y2="183.34"/>
	<line class="st1" x1="160.67" y1="181.17" x2="98.1" y2="52.54"/>
	<line class="st1" x1="12.72" y1="228.07" x2="183.5" y2="228.07"/>
	<line class="st1" x1="215.6" y1="294.07" x2="183.5" y2="228.07"/>
	<line class="st1" x1="60.91" y1="294.07" x2="215.6" y2="294.07"/>
	<line class="st1" x1="36.02" y1="275.88" x2="12.72" y2="228.07"/>
	<path class="st1" d="M60.91,294.07c-12.51-0.82-20.79-7.82-25.11-18.64"/>
</g>
</svg>
